<?xml version="1.0" encoding="UTF-8" ?>
<!DOCTYPE svg PUBLIC "-//W3C//DTD SVG 1.1//EN" "http://www.w3.org/Graphics/SVG/1.1/DTD/svg11.dtd">
<svg width="892pt" height="891pt" viewBox="0 0 892 891" version="1.1" xmlns="http://www.w3.org/2000/svg">
<g id="#ffffffff">
<path fill="#ffffff" opacity="1.00" d=" M 0.00 0.00 L 892.00 0.00 L 892.00 891.00 L 0.00 891.00 L 0.00 0.00 M 334.42 291.46 C 311.03 308.35 291.45 330.58 277.98 356.12 C 274.02 359.99 271.16 365.15 270.86 370.76 C 267.55 378.67 264.69 386.76 262.42 395.02 C 249.24 442.04 255.36 493.99 278.91 536.74 C 274.60 536.84 270.30 536.70 266.01 536.47 C 266.72 540.82 269.10 544.73 272.09 547.90 C 276.48 552.24 282.70 553.63 288.46 555.18 C 288.57 557.15 288.70 559.12 288.80 561.11 L 289.20 561.71 C 290.06 580.93 289.83 600.17 289.40 619.40 C 295.05 620.44 297.72 614.50 299.35 610.21 C 303.28 598.67 304.45 586.42 305.83 574.37 C 329.26 599.50 359.39 618.18 392.34 627.95 C 389.20 631.59 385.27 634.46 382.04 638.02 C 374.82 645.47 365.65 652.15 354.90 652.52 C 345.31 653.16 335.92 648.45 329.69 641.33 C 324.67 635.47 325.71 625.52 332.26 621.22 C 339.82 615.79 352.13 619.92 354.43 629.03 C 355.64 634.17 351.51 639.95 346.03 639.54 C 341.91 639.84 338.75 636.67 337.44 633.06 C 337.78 632.36 338.47 630.96 338.81 630.27 C 340.31 630.52 341.81 630.85 343.30 631.24 C 343.67 632.90 344.23 634.51 345.07 636.02 C 346.35 634.53 348.14 633.02 347.54 630.83 C 344.76 626.11 336.50 625.92 333.57 630.58 C 332.48 632.79 333.54 635.32 334.93 637.13 C 337.79 640.80 342.05 644.08 346.97 643.56 C 355.59 643.16 361.21 632.27 357.15 624.83 C 353.47 618.03 345.56 614.41 338.02 614.64 C 328.13 615.66 319.43 626.14 322.56 636.10 C 329.26 654.10 353.76 661.38 369.86 651.62 C 379.96 645.79 386.59 635.64 396.29 629.29 C 398.92 629.33 401.41 630.30 403.98 630.82 C 434.22 637.63 466.14 636.86 496.01 628.56 C 497.32 628.22 498.84 627.88 499.99 628.86 C 508.69 634.69 515.13 643.21 523.68 649.25 C 536.24 659.62 556.05 657.42 567.53 646.49 C 572.26 641.71 576.48 635.01 574.55 628.02 C 572.80 622.62 568.42 618.38 563.49 615.79 C 554.03 612.02 542.56 617.82 538.80 627.00 C 536.97 634.00 541.63 642.49 549.07 643.50 C 555.28 644.43 561.03 639.77 563.49 634.39 C 564.97 630.83 561.42 627.46 558.01 627.39 C 554.91 627.01 551.25 627.62 549.55 630.55 C 548.64 632.76 550.38 634.73 552.07 635.92 C 552.64 634.37 553.17 632.82 553.65 631.25 C 555.11 630.82 556.61 630.50 558.13 630.30 C 558.48 630.98 559.16 632.35 559.50 633.03 C 558.31 635.90 556.30 638.77 553.02 639.34 C 547.83 640.85 541.93 636.50 542.36 631.01 C 542.69 622.37 552.93 616.87 560.73 619.38 C 567.69 621.17 572.07 629.25 569.90 636.09 C 568.20 642.03 562.87 645.85 557.82 648.86 C 548.84 654.01 537.38 653.57 528.40 648.67 C 518.09 643.33 511.67 633.13 502.07 626.84 C 552.97 611.11 596.48 572.97 618.24 524.29 C 621.31 530.15 626.68 536.24 633.98 535.46 C 641.55 534.35 646.54 527.22 649.54 520.75 C 645.30 521.38 642.33 525.21 637.99 525.57 C 636.41 525.80 635.26 524.50 634.69 523.22 C 633.34 512.49 633.58 501.32 630.02 491.01 C 638.34 456.17 637.09 419.01 625.54 385.04 C 621.34 373.10 616.53 361.18 609.66 350.52 C 609.23 343.82 609.54 336.90 607.50 330.43 C 606.62 327.27 603.41 324.61 600.05 326.06 C 597.44 326.19 596.49 328.76 595.99 330.93 C 596.27 329.31 594.73 328.21 593.95 327.00 C 580.13 309.83 563.42 294.96 544.59 283.49 C 512.27 263.64 473.91 253.86 436.03 255.82 C 399.67 257.57 363.92 270.12 334.42 291.46 M 451.91 638.90 L 451.43 640.08 C 453.07 644.34 456.08 647.86 458.00 651.98 C 459.09 653.95 459.75 656.47 461.92 657.57 C 465.03 658.42 465.13 654.29 464.41 652.35 C 461.98 646.82 457.96 641.95 453.10 638.38 L 451.91 638.90 M 437.20 641.26 C 433.51 644.16 430.00 647.31 426.76 650.73 C 425.15 652.58 423.07 654.38 422.97 657.05 C 430.53 653.79 437.26 647.79 440.91 640.38 C 439.58 640.14 438.19 640.26 437.20 641.26 M 443.23 648.00 C 442.65 652.32 441.74 657.01 443.85 661.08 C 444.85 660.07 446.31 659.20 446.48 657.64 C 447.34 652.01 446.10 646.40 445.41 640.84 C 443.87 642.89 443.72 645.55 443.23 648.00 M 209.50 696.03 C 210.22 698.97 210.77 701.95 211.48 704.91 C 205.91 704.93 200.34 704.92 194.77 704.93 C 194.77 708.60 194.77 712.28 194.77 715.96 C 196.55 715.99 198.34 716.04 200.12 716.14 C 200.68 720.30 201.61 724.40 202.52 728.51 C 198.93 728.54 195.34 728.53 191.75 728.53 C 191.78 732.37 191.77 736.22 191.77 740.07 C 198.32 740.09 204.87 740.04 211.42 740.10 C 211.40 742.49 211.40 744.87 211.40 747.27 C 205.40 747.30 199.41 747.22 193.41 747.32 C 193.57 751.23 193.50 755.15 193.51 759.08 C 199.48 759.11 205.45 759.04 211.42 759.10 C 211.29 765.50 211.60 771.91 211.27 778.30 C 210.12 781.59 206.04 780.70 203.36 781.10 C 204.53 785.11 205.68 789.14 206.74 793.19 C 210.94 792.87 215.27 792.68 219.26 791.23 C 221.79 790.32 223.07 787.72 223.21 785.18 C 223.61 779.41 223.12 773.62 223.49 767.85 C 226.19 771.50 228.91 775.29 230.35 779.65 C 233.02 777.64 235.71 775.67 238.59 773.97 C 236.42 778.83 233.75 783.43 230.87 787.90 C 234.80 789.97 238.66 792.21 242.78 793.91 C 245.42 788.74 248.21 783.61 250.04 778.08 C 253.94 766.53 254.61 754.19 254.48 742.09 C 257.39 742.04 260.30 742.05 263.21 742.20 C 263.15 758.82 263.20 775.45 263.18 792.08 C 267.24 792.07 271.30 792.07 275.35 792.08 C 275.35 775.41 275.37 758.74 275.35 742.08 C 278.44 742.08 281.53 742.09 284.62 742.02 C 284.58 737.84 284.58 733.66 284.62 729.49 C 274.57 729.58 264.53 729.50 254.48 729.54 C 254.50 725.03 254.49 720.53 254.49 716.03 C 263.99 714.47 273.50 712.61 282.52 709.16 C 280.97 705.08 280.01 700.81 278.34 696.79 C 266.79 700.78 254.68 703.16 242.52 704.09 C 242.44 720.07 242.63 736.04 242.42 752.02 C 241.96 758.75 241.38 765.58 239.14 772.00 C 236.74 767.79 233.96 763.82 231.13 759.90 C 228.52 761.42 225.97 763.03 223.38 764.60 C 223.36 762.75 223.35 760.91 223.34 759.08 C 228.77 759.04 234.21 759.20 239.65 758.97 C 239.57 755.06 239.57 751.15 239.64 747.24 C 234.21 747.31 228.79 747.25 223.36 747.28 C 223.35 744.87 223.35 742.47 223.36 740.07 C 229.02 740.08 234.69 740.07 240.36 740.08 C 240.36 736.22 240.34 732.37 240.38 728.52 C 237.71 728.53 235.05 728.53 232.39 728.54 C 233.28 724.43 234.26 720.33 234.87 716.18 C 236.37 716.08 237.86 715.99 239.36 715.93 C 239.35 712.26 239.36 708.59 239.35 704.92 C 234.38 704.93 229.40 704.90 224.43 704.95 C 223.65 701.80 223.29 698.58 222.66 695.41 C 218.28 695.69 213.89 695.96 209.50 696.03 M 648.71 696.09 C 649.38 698.35 649.92 700.65 650.49 702.95 C 638.39 703.07 626.28 702.96 614.18 703.00 C 614.19 714.68 614.17 726.36 614.19 738.03 C 613.58 748.10 613.73 758.38 610.57 768.08 C 608.84 774.23 605.40 779.65 602.92 785.48 C 606.94 787.27 610.83 789.33 614.89 791.06 C 616.57 787.78 618.22 784.49 619.93 781.24 C 621.56 783.92 623.19 786.61 624.88 789.26 C 634.93 784.27 644.80 778.92 654.50 773.28 C 654.42 775.72 655.09 779.00 652.51 780.44 C 649.62 781.45 646.51 781.54 643.52 781.99 C 644.97 785.48 645.72 789.27 647.25 792.70 C 650.12 793.21 653.07 792.20 655.97 792.08 C 659.84 791.81 664.14 789.86 665.11 785.75 C 666.13 780.41 665.31 774.92 665.66 769.52 C 674.19 779.18 685.22 786.30 697.02 791.34 C 698.61 787.65 700.53 784.11 702.09 780.41 C 695.45 777.73 689.01 774.52 683.10 770.46 C 687.12 767.55 691.04 764.52 695.06 761.63 C 693.71 759.46 692.16 757.40 690.31 755.64 C 690.66 755.42 691.37 754.97 691.73 754.75 C 692.24 750.39 691.11 745.87 692.38 741.62 C 694.67 741.73 696.97 741.73 699.27 741.70 C 699.21 738.63 699.21 735.57 699.25 732.52 C 696.88 732.52 694.52 732.53 692.17 732.58 C 691.46 728.09 691.95 723.53 691.82 719.01 C 683.07 718.97 674.33 719.04 665.59 718.97 C 665.58 717.46 665.58 715.97 665.59 714.48 C 676.14 714.45 686.69 714.47 697.25 714.47 C 697.22 710.64 697.23 706.82 697.23 703.00 C 686.29 702.97 675.36 703.05 664.43 702.96 C 663.80 700.50 663.32 698.00 663.04 695.49 C 658.26 695.56 653.48 695.85 648.71 696.09 M 348.17 696.99 C 348.18 700.59 348.17 704.20 348.21 707.80 C 343.69 708.02 339.17 707.90 334.65 707.92 C 334.64 711.70 334.64 715.48 334.64 719.26 C 339.16 719.28 343.69 719.12 348.22 719.40 C 348.13 722.79 348.39 726.20 347.86 729.57 C 342.36 729.47 336.87 729.58 331.38 729.50 C 331.42 733.35 331.40 737.22 331.41 741.08 C 337.67 741.12 343.95 740.94 350.21 741.20 C 350.12 750.53 350.26 759.86 350.14 769.19 C 347.28 767.50 346.69 763.80 345.55 760.94 C 344.86 756.20 345.59 751.36 345.38 746.58 C 341.81 746.28 338.25 745.96 334.68 745.86 C 334.78 755.35 334.30 764.99 331.37 774.10 C 329.93 778.84 327.82 783.34 326.01 787.95 C 329.45 789.38 332.87 790.89 336.27 792.43 C 338.37 787.70 340.22 782.86 341.81 777.94 C 345.29 783.11 350.47 787.05 356.54 788.63 C 367.08 791.51 378.15 790.86 388.96 791.00 C 399.82 791.21 410.67 790.44 421.53 790.31 C 422.86 786.29 423.48 782.10 424.43 778.00 C 413.32 779.02 402.15 778.99 391.00 779.02 C 389.56 779.03 388.15 778.88 386.76 778.55 C 378.40 779.50 369.91 778.29 361.59 777.38 C 361.60 773.08 361.60 768.78 361.59 764.48 C 364.79 764.46 368.00 764.46 371.21 764.47 C 371.23 762.90 371.28 761.35 371.37 759.80 C 373.29 762.03 374.96 764.46 376.76 766.81 C 382.86 761.50 389.58 756.85 395.16 750.98 C 395.24 751.89 395.39 753.72 395.46 754.63 C 390.35 760.66 384.44 765.96 378.31 770.93 C 380.37 773.36 382.90 775.47 384.44 778.31 C 385.57 778.18 386.70 778.04 387.84 777.87 C 391.66 774.09 395.63 770.44 399.17 766.38 C 400.82 769.71 402.39 773.24 405.28 775.72 C 409.17 779.28 416.19 778.78 419.14 774.25 C 422.42 769.42 423.67 763.56 424.85 757.93 C 421.51 756.06 418.21 754.12 414.88 752.24 C 414.71 755.23 414.50 758.27 413.45 761.11 C 413.37 762.47 411.40 763.83 410.37 762.56 C 409.02 760.26 408.60 757.54 407.68 755.06 C 413.12 747.27 416.36 738.27 419.79 729.49 C 416.72 728.34 413.62 726.29 410.35 726.30 C 408.71 730.66 407.29 735.14 404.96 739.20 C 404.21 733.73 403.52 728.24 403.33 722.72 C 409.40 722.74 415.47 722.70 421.54 722.75 C 421.46 718.91 421.46 715.09 421.54 711.26 C 419.33 711.27 417.11 711.25 414.91 711.23 C 416.53 709.63 418.19 708.06 419.89 706.55 C 416.71 702.93 413.10 699.72 409.68 696.34 C 407.21 698.63 404.88 701.07 402.31 703.24 C 402.25 701.35 402.23 699.46 402.23 697.58 C 398.34 697.36 394.46 697.07 390.58 696.93 C 390.64 701.72 390.70 706.50 390.85 711.28 C 385.02 711.25 379.19 711.31 373.36 711.24 C 373.45 725.15 373.39 739.06 373.40 752.97 C 373.59 754.87 372.57 756.49 371.38 757.87 C 371.27 756.09 371.23 754.30 371.21 752.53 C 368.00 752.53 364.79 752.53 361.58 752.52 C 361.60 748.71 361.60 744.91 361.57 741.11 C 364.80 741.10 368.04 741.14 371.26 740.80 C 370.74 737.05 370.76 733.26 370.83 729.49 C 367.12 729.55 363.41 729.54 359.71 729.50 C 359.73 726.11 359.73 722.73 359.68 719.35 C 363.28 719.20 366.89 719.23 370.50 719.27 C 370.49 715.48 370.49 711.70 370.49 707.92 C 366.89 707.93 363.29 707.94 359.70 707.86 C 359.73 704.46 359.73 701.05 359.69 697.65 C 355.85 697.49 352.01 697.31 348.17 696.99 M 480.55 696.89 C 477.02 712.32 471.01 727.12 463.42 740.99 C 465.99 744.18 468.45 747.46 470.98 750.69 C 472.36 748.06 473.71 745.41 475.36 742.94 C 475.70 759.37 475.42 775.82 475.50 792.27 C 478.94 792.24 482.38 792.24 485.82 792.27 C 485.81 790.45 485.81 788.64 485.85 786.84 C 488.85 788.39 491.01 791.09 493.81 792.95 C 496.47 788.91 499.35 785.01 501.96 780.93 C 508.80 787.78 518.75 789.73 528.07 790.04 C 538.43 790.11 548.79 790.36 559.14 789.91 C 561.43 787.07 561.24 782.53 562.83 779.18 C 555.60 779.89 548.33 779.76 541.07 779.93 C 532.94 779.53 524.43 780.46 516.74 777.20 C 513.16 775.77 510.19 773.28 507.27 770.84 C 511.83 758.28 514.18 744.86 513.62 731.49 C 509.74 731.56 505.86 731.55 501.98 731.48 C 505.90 725.57 509.56 719.49 513.49 713.59 C 513.49 709.80 513.46 706.03 513.54 702.25 C 506.51 702.29 499.49 702.29 492.46 702.25 C 492.53 705.92 492.51 709.59 492.51 713.27 C 495.61 713.23 498.73 713.23 501.84 713.28 C 497.88 719.15 494.27 725.24 490.30 731.10 C 490.26 734.82 490.28 738.55 490.27 742.28 C 494.69 742.24 499.11 742.20 503.54 742.32 C 502.94 747.59 502.29 752.88 500.90 758.01 C 498.25 755.04 498.12 750.65 497.08 746.96 C 493.72 747.45 490.60 748.85 487.39 749.87 C 489.07 757.35 491.69 764.55 494.81 771.54 C 491.81 775.28 489.84 780.14 485.82 782.91 C 485.81 761.89 485.82 740.87 485.82 719.85 C 488.20 713.03 490.16 706.07 491.71 699.02 C 487.98 698.32 484.25 697.67 480.55 696.89 M 528.63 696.85 C 528.64 699.22 528.64 701.59 528.66 703.98 C 524.83 704.01 521.00 703.99 517.18 704.01 C 517.18 707.25 517.19 710.51 517.16 713.76 C 520.97 713.70 524.78 713.74 528.60 713.70 C 528.62 715.12 528.64 716.54 528.67 717.98 C 523.99 718.02 519.32 717.99 514.64 718.00 C 514.64 721.36 514.64 724.71 514.65 728.08 C 519.31 728.07 523.98 728.07 528.65 728.08 C 528.64 729.56 528.64 731.05 528.64 732.54 C 524.81 732.52 520.99 732.55 517.16 732.50 C 517.19 735.69 517.18 738.88 517.18 742.08 C 521.00 742.07 524.83 742.07 528.65 742.08 C 528.64 743.56 528.64 745.05 528.64 746.54 C 524.83 746.52 521.03 746.55 517.23 746.50 C 517.15 747.99 517.08 749.49 517.02 751.00 C 517.12 752.68 517.19 754.37 517.23 756.08 C 521.03 756.07 524.84 756.07 528.65 756.08 C 528.64 757.37 528.64 758.67 528.65 759.99 C 523.57 760.01 518.49 759.99 513.41 760.00 C 513.40 763.36 513.40 766.72 513.41 770.08 C 518.49 770.07 523.57 770.07 528.65 770.08 C 528.64 772.41 528.64 774.74 528.64 777.08 C 532.26 777.07 535.87 777.07 539.49 777.08 C 539.49 774.74 539.48 772.41 539.48 770.08 C 545.89 770.06 552.31 770.08 558.72 770.08 C 558.72 766.72 558.72 763.36 558.73 760.01 C 552.31 759.99 545.90 760.00 539.49 760.00 C 539.48 758.68 539.48 757.37 539.49 756.07 C 545.07 756.07 550.65 756.07 556.23 756.07 C 556.23 752.89 556.22 749.70 556.25 746.53 C 550.66 746.54 545.07 746.52 539.49 746.54 C 539.48 745.04 539.48 743.56 539.48 742.08 C 545.15 742.06 550.82 742.07 556.49 742.08 C 556.48 737.43 556.50 732.78 556.47 728.13 C 557.85 728.06 559.24 728.01 560.64 727.96 C 560.57 724.66 560.58 721.36 560.62 718.07 C 559.21 718.00 557.81 717.94 556.42 717.88 C 556.55 713.25 556.47 708.62 556.49 704.00 C 550.81 703.97 545.13 704.05 539.46 703.95 C 539.48 701.63 539.49 699.32 539.48 697.01 C 535.86 697.00 532.24 696.94 528.63 696.85 M 112.28 755.08 C 123.12 755.06 133.97 755.08 144.82 755.08 C 144.82 750.96 144.81 746.84 144.82 742.73 C 133.99 742.74 123.15 742.80 112.32 742.70 C 112.24 746.82 112.29 750.95 112.28 755.08 M 746.27 742.73 C 746.28 746.84 746.28 750.95 746.27 755.07 C 757.10 755.09 767.93 755.07 778.77 755.08 C 778.98 750.95 779.20 746.84 778.75 742.73 C 767.93 742.76 757.10 742.77 746.27 742.73 M 199.02 759.63 C 196.16 767.60 191.91 775.00 187.04 781.90 C 190.37 783.77 193.67 785.72 197.00 787.59 C 202.10 780.41 205.90 772.40 209.38 764.34 C 205.90 762.81 202.49 761.16 199.02 759.63 Z" />
<path fill="#ffffff" opacity="1.00" d=" M 402.46 703.98 C 404.78 706.29 406.95 708.74 409.08 711.23 C 406.89 711.26 404.70 711.27 402.51 711.29 C 402.39 708.85 402.33 706.41 402.46 703.98 Z" />
<path fill="#ffffff" opacity="1.00" d=" M 539.51 713.72 C 541.59 713.72 543.67 713.72 545.76 713.72 C 545.76 715.14 545.76 716.56 545.78 718.01 C 543.66 718.00 541.55 717.98 539.44 717.95 C 539.46 716.52 539.48 715.12 539.51 713.72 Z" />
<path fill="#ffffff" opacity="1.00" d=" M 626.35 714.46 C 635.74 714.48 645.13 714.46 654.52 714.46 C 654.51 715.97 654.50 717.48 654.50 719.00 C 646.76 719.00 639.01 718.99 631.27 719.01 C 631.28 722.26 631.29 725.51 631.24 728.76 C 638.99 728.67 646.74 728.75 654.50 728.72 C 654.50 729.98 654.50 731.25 654.52 732.54 C 645.13 732.53 635.74 732.52 626.35 732.54 C 626.36 726.51 626.36 720.48 626.35 714.46 Z" />
<path fill="#ffffff" opacity="1.00" d=" M 211.33 716.01 C 215.47 715.99 219.61 715.99 223.75 716.01 C 223.01 720.19 221.95 724.30 221.23 728.49 C 218.69 728.53 216.15 728.53 213.61 728.52 C 212.87 724.34 212.02 720.19 211.33 716.01 Z" />
<path fill="#ffffff" opacity="1.00" d=" M 384.49 722.72 C 386.84 722.72 389.19 722.72 391.54 722.73 C 392.20 731.75 392.81 740.82 394.72 749.68 C 394.16 750.46 393.59 751.25 393.03 752.05 C 392.21 748.65 391.04 745.35 390.12 741.98 C 388.27 743.55 386.45 745.16 384.61 746.74 C 384.35 738.73 384.56 730.72 384.49 722.72 Z" />
<path fill="#ffffff" opacity="1.00" d=" M 539.48 728.08 C 541.57 728.07 543.67 728.07 545.77 728.07 C 545.76 729.55 545.76 731.04 545.77 732.54 C 543.67 732.53 541.57 732.53 539.49 732.54 C 539.48 731.04 539.48 729.56 539.48 728.08 Z" />
<path fill="#ffffff" opacity="1.00" d=" M 665.60 728.73 C 670.61 728.72 675.62 728.73 680.64 728.72 C 680.64 729.67 680.65 731.58 680.65 732.54 C 675.62 732.52 670.60 732.54 665.58 732.52 C 665.59 731.57 665.60 729.68 665.60 728.73 Z" />
<path fill="#ffffff" opacity="1.00" d=" M 620.49 779.19 C 625.61 767.44 626.09 754.33 626.38 741.71 C 635.75 741.74 645.13 741.72 654.50 741.72 C 654.50 742.98 654.50 744.25 654.52 745.54 C 646.44 745.50 638.35 745.59 630.27 745.49 C 630.30 748.93 630.13 752.38 630.51 755.81 C 629.22 757.09 628.03 758.47 626.94 759.93 C 631.20 763.02 635.02 766.65 638.91 770.19 C 632.87 773.37 626.88 776.74 620.49 779.19 Z" />
<path fill="#ffffff" opacity="1.00" d=" M 665.60 741.73 C 670.61 741.72 675.62 741.73 680.64 741.72 C 680.64 742.67 680.65 744.59 680.65 745.54 C 675.62 745.52 670.60 745.54 665.58 745.52 C 665.59 744.57 665.60 742.68 665.60 741.73 Z" />
<path fill="#ffffff" opacity="1.00" d=" M 637.50 755.18 C 643.17 754.98 648.84 755.10 654.52 755.08 C 654.50 757.50 654.50 759.92 654.55 762.35 C 652.80 761.96 651.39 763.16 649.97 763.96 C 647.17 765.65 644.31 767.22 641.44 768.77 C 643.04 766.79 644.68 764.84 646.42 762.98 C 643.53 760.29 640.70 757.52 637.50 755.18 Z" />
<path fill="#ffffff" opacity="1.00" d=" M 668.14 755.12 C 673.81 755.05 679.48 755.03 685.15 755.15 C 681.50 757.80 677.84 760.46 674.03 762.87 C 671.99 760.34 669.89 757.86 668.14 755.12 Z" />
</g>
<g id="#c9e265ff">
<path fill="#c9e265" opacity="1.00" d=" M 334.42 291.46 C 363.92 270.12 399.67 257.57 436.03 255.82 C 473.91 253.86 512.27 263.64 544.59 283.49 C 563.42 294.96 580.13 309.83 593.95 327.00 C 594.73 328.21 596.27 329.31 595.99 330.93 C 593.69 339.14 593.60 347.82 590.90 355.93 C 587.87 366.03 580.11 374.03 571.48 379.72 C 570.50 378.35 570.88 376.57 570.76 375.01 C 570.78 364.95 570.22 354.85 568.38 344.94 C 567.09 339.05 565.68 331.05 558.79 329.40 C 554.99 328.67 552.77 332.81 552.20 335.97 C 550.76 343.32 551.37 350.89 551.61 358.33 C 552.50 367.61 553.08 377.96 559.89 385.09 C 563.80 389.84 570.93 391.25 576.38 388.40 C 584.49 384.27 588.57 375.69 593.29 368.39 C 593.41 371.94 593.34 375.50 593.00 379.04 C 592.14 391.51 591.95 404.23 588.55 416.34 C 587.42 421.04 582.76 424.21 578.01 424.04 C 572.91 424.69 568.15 421.63 563.08 422.62 C 564.03 427.31 567.11 431.28 570.62 434.39 C 575.47 438.44 582.49 437.58 587.76 434.85 C 592.40 432.38 597.26 429.62 600.13 425.05 C 603.87 419.34 605.73 412.64 607.09 406.01 C 610.73 387.75 609.77 369.03 609.66 350.52 C 616.53 361.18 621.34 373.10 625.54 385.04 C 637.09 419.01 638.34 456.17 630.02 491.01 C 627.54 486.33 625.86 480.89 621.51 477.52 C 616.93 473.72 609.94 473.92 605.08 477.09 C 598.14 481.33 594.10 488.62 589.68 495.17 C 590.32 478.79 591.73 462.41 591.29 446.00 C 591.14 443.42 590.93 439.79 587.97 438.88 C 584.72 438.16 581.62 439.72 578.70 440.91 C 577.00 450.92 576.69 461.08 575.68 471.16 C 567.69 474.93 558.97 476.68 550.36 478.38 C 549.33 474.44 549.89 470.22 548.48 466.40 C 545.63 461.36 540.24 458.39 534.89 456.66 C 532.70 455.62 530.45 456.87 528.34 457.47 C 531.75 464.98 528.02 473.21 526.59 480.77 C 521.47 481.33 516.33 481.75 511.18 481.51 C 511.28 475.39 513.30 468.62 509.65 463.12 C 506.18 456.92 498.13 457.25 492.02 456.16 C 492.54 458.54 493.50 460.81 494.04 463.19 C 493.91 470.55 492.75 477.85 491.94 485.15 C 490.42 497.72 489.06 510.31 487.75 522.91 C 486.99 531.56 485.84 540.23 486.41 548.93 C 486.83 554.44 488.77 559.67 490.47 564.88 C 493.04 572.85 503.92 576.02 510.83 571.83 C 512.58 570.83 512.42 568.64 512.70 566.94 C 508.29 568.74 501.87 571.41 498.56 566.42 C 498.48 561.94 498.02 557.44 498.79 553.00 C 503.00 531.85 507.22 510.66 509.96 489.26 C 514.89 490.39 519.85 491.39 524.86 492.19 C 522.32 505.67 520.55 519.88 524.77 533.22 C 527.45 540.43 532.00 547.30 538.61 551.45 C 544.48 555.23 552.38 554.81 558.25 551.24 C 562.33 548.75 566.75 546.47 569.87 542.76 C 571.51 540.95 570.10 538.60 568.96 536.99 C 563.63 542.69 557.12 548.51 548.96 549.01 C 545.69 549.31 543.09 546.74 541.67 544.08 C 539.24 536.63 539.37 528.66 540.75 521.02 C 542.43 511.05 545.02 501.24 547.98 491.58 C 557.70 491.03 567.18 487.38 575.27 482.05 C 574.17 487.97 574.45 494.04 573.69 500.00 C 573.48 509.68 571.56 519.34 572.67 529.02 C 573.09 531.99 574.08 535.59 577.17 536.80 C 579.14 537.26 581.13 536.46 583.08 536.19 C 587.75 526.67 587.67 515.68 591.95 506.04 C 595.77 496.63 603.78 489.61 612.35 484.56 C 613.11 494.06 613.46 503.60 614.54 513.08 C 614.95 517.03 616.29 520.84 618.24 524.29 C 596.48 572.97 552.97 611.11 502.07 626.84 C 511.67 633.13 518.09 643.33 528.40 648.67 C 537.38 653.57 548.84 654.01 557.82 648.86 C 562.87 645.85 568.20 642.03 569.90 636.09 C 572.07 629.25 567.69 621.17 560.73 619.38 C 552.93 616.87 542.69 622.37 542.36 631.01 C 541.93 636.50 547.83 640.85 553.02 639.34 C 556.30 638.77 558.31 635.90 559.50 633.03 C 559.16 632.35 558.48 630.98 558.13 630.30 C 556.61 630.50 555.11 630.82 553.65 631.25 C 553.17 632.82 552.64 634.37 552.07 635.92 C 550.38 634.73 548.64 632.76 549.55 630.55 C 551.25 627.62 554.91 627.01 558.01 627.39 C 561.42 627.46 564.97 630.83 563.49 634.39 C 561.03 639.77 555.28 644.43 549.07 643.50 C 541.63 642.49 536.97 634.00 538.80 627.00 C 542.56 617.82 554.03 612.02 563.49 615.79 C 568.42 618.38 572.80 622.62 574.55 628.02 C 576.48 635.01 572.26 641.71 567.53 646.49 C 556.05 657.42 536.24 659.62 523.68 649.25 C 515.13 643.21 508.69 634.69 499.99 628.86 C 498.84 627.88 497.32 628.22 496.01 628.56 C 466.14 636.86 434.22 637.63 403.98 630.82 C 401.41 630.30 398.92 629.33 396.29 629.29 C 386.59 635.64 379.96 645.79 369.86 651.62 C 353.76 661.38 329.26 654.10 322.56 636.10 C 319.43 626.14 328.13 615.66 338.02 614.64 C 345.56 614.41 353.47 618.03 357.15 624.83 C 361.21 632.27 355.59 643.16 346.97 643.56 C 342.05 644.08 337.79 640.80 334.93 637.13 C 333.54 635.32 332.48 632.79 333.57 630.58 C 336.50 625.92 344.76 626.11 347.54 630.83 C 348.14 633.02 346.35 634.53 345.07 636.02 C 344.23 634.51 343.67 632.90 343.30 631.24 C 341.81 630.85 340.31 630.52 338.81 630.27 C 338.47 630.96 337.78 632.36 337.44 633.06 C 338.75 636.67 341.91 639.84 346.03 639.54 C 351.51 639.95 355.64 634.17 354.43 629.03 C 352.13 619.92 339.82 615.79 332.26 621.22 C 325.71 625.52 324.67 635.47 329.69 641.33 C 335.92 648.45 345.31 653.16 354.90 652.52 C 365.65 652.15 374.82 645.47 382.04 638.02 C 385.27 634.46 389.20 631.59 392.34 627.95 C 359.39 618.18 329.26 599.50 305.83 574.37 C 307.06 568.07 306.34 561.55 307.19 555.28 C 317.52 554.47 327.91 554.12 338.19 552.69 C 337.23 564.45 337.65 576.27 337.29 588.06 C 337.40 591.52 336.91 595.30 338.65 598.47 C 339.74 600.36 341.82 598.90 343.02 597.92 C 346.92 594.31 349.34 589.39 351.17 584.47 C 355.35 572.42 356.93 559.59 356.78 546.88 C 358.51 544.92 360.11 542.69 360.38 540.02 C 361.16 533.91 360.25 527.33 356.81 522.12 C 356.51 510.93 355.49 499.45 350.82 489.15 C 345.19 483.10 335.81 484.24 328.73 486.75 C 334.20 489.37 337.81 494.94 338.12 500.98 C 338.79 511.96 338.50 522.99 338.40 533.99 C 327.91 535.04 317.36 535.50 306.83 535.78 C 306.78 523.75 305.95 511.29 300.82 500.24 C 295.12 494.19 285.75 495.35 278.63 497.91 C 284.63 500.38 288.15 506.62 288.30 512.96 C 288.58 520.80 288.70 528.66 288.49 536.51 C 285.29 536.53 282.10 536.67 278.91 536.74 C 255.36 493.99 249.24 442.04 262.42 395.02 C 264.69 386.76 267.55 378.67 270.86 370.76 C 271.06 376.39 272.83 382.10 276.81 386.22 C 281.47 391.47 288.09 394.40 294.66 396.48 C 304.95 399.81 315.30 403.16 325.02 407.95 C 328.41 409.63 332.38 412.72 331.45 417.03 C 330.21 421.66 326.33 424.99 322.51 427.59 C 315.10 432.46 306.74 435.61 298.41 438.50 C 290.22 441.24 281.68 443.75 272.95 442.81 C 269.77 442.64 264.51 442.67 264.37 446.99 C 264.11 451.49 263.22 457.41 267.53 460.36 C 273.87 464.30 282.02 464.05 288.99 462.05 C 301.25 458.37 312.41 451.86 323.28 445.24 C 332.66 439.35 341.92 432.36 347.49 422.58 C 352.23 414.33 351.46 403.61 346.20 395.80 C 341.23 388.37 333.05 383.83 324.73 381.13 C 316.52 378.56 307.90 376.92 300.35 372.64 C 298.25 371.33 295.78 369.60 295.59 366.92 C 296.90 362.49 301.00 359.59 305.08 357.88 C 312.89 354.71 321.61 354.40 329.88 355.54 C 335.34 356.29 340.50 359.17 346.11 358.60 C 350.75 358.14 355.03 353.69 354.31 348.90 C 352.54 343.76 346.93 341.63 342.34 339.66 C 331.19 335.14 318.79 337.30 307.66 340.75 C 297.07 344.24 286.38 348.57 277.98 356.12 C 291.45 330.58 311.03 308.35 334.42 291.46 M 363.80 335.50 C 361.20 357.26 360.35 379.17 358.56 401.00 C 358.51 410.13 355.65 419.86 359.67 428.55 C 361.27 431.95 365.32 431.12 368.27 430.43 C 373.56 420.35 372.95 408.32 378.21 398.22 C 382.32 389.91 389.67 383.51 397.55 378.86 C 398.70 386.54 398.38 394.34 399.39 402.04 C 399.35 410.88 402.87 419.55 408.97 425.92 C 412.28 428.88 417.04 430.68 421.43 429.28 C 426.54 427.63 430.05 423.20 432.91 418.89 C 433.63 417.61 434.77 416.29 434.36 414.72 C 431.30 416.03 428.59 418.04 425.50 419.30 C 423.95 419.88 421.64 420.25 420.72 418.49 C 419.27 416.61 419.73 414.12 419.48 411.92 C 418.77 403.26 418.13 394.54 415.79 386.15 C 413.23 381.19 411.46 375.48 406.98 371.84 C 402.60 368.07 395.87 368.01 391.03 370.94 C 386.07 373.85 382.31 378.40 379.14 383.11 C 377.72 385.07 376.85 387.56 374.73 388.92 C 376.20 372.65 376.81 356.29 376.54 339.94 C 376.66 337.81 375.95 335.79 375.17 333.85 C 371.41 331.83 367.15 333.47 363.80 335.50 M 477.93 343.26 C 475.35 353.29 474.64 363.64 473.64 373.90 C 473.13 383.28 471.64 392.67 472.46 402.08 C 472.77 404.69 473.37 407.56 475.37 409.44 C 477.49 411.43 480.51 410.08 482.97 409.68 C 487.24 400.91 487.49 390.92 490.88 381.86 C 494.44 371.49 502.93 363.51 512.27 358.19 C 512.48 365.14 513.38 372.04 513.59 378.99 C 514.22 384.41 514.31 390.07 516.65 395.11 C 518.10 398.24 519.99 401.17 522.13 403.87 C 525.46 407.98 531.31 410.33 536.46 408.52 C 541.47 406.59 544.94 402.17 547.75 397.78 C 548.55 396.74 548.69 395.42 548.85 394.16 C 544.50 395.79 540.86 399.78 535.85 398.99 C 534.00 396.37 534.17 393.09 533.79 390.04 C 533.27 381.58 532.45 373.05 529.99 364.91 C 527.52 360.23 525.86 354.81 521.60 351.36 C 517.20 347.45 510.34 347.40 505.43 350.38 C 500.73 353.22 497.08 357.51 493.99 361.99 C 492.46 364.10 491.45 366.61 489.45 368.35 C 489.43 362.90 489.60 357.46 489.48 352.01 C 489.30 349.08 488.70 345.67 486.02 343.96 C 483.63 342.33 480.59 342.96 477.93 343.26 M 446.16 361.07 C 444.88 364.08 443.54 367.68 445.34 370.77 C 446.76 373.03 449.77 371.43 451.58 370.54 C 455.25 368.21 454.22 363.44 453.45 359.89 C 452.01 359.26 450.61 358.42 449.02 358.24 C 447.23 357.93 446.78 359.85 446.16 361.07 M 438.55 401.03 C 439.99 406.08 444.11 412.12 450.15 411.00 C 456.25 409.23 460.39 403.93 464.29 399.24 C 465.99 396.63 468.96 394.13 468.28 390.72 C 461.94 395.89 458.87 404.92 450.89 408.27 C 449.30 409.11 447.82 407.79 446.44 407.22 C 446.20 398.46 449.54 390.17 452.35 382.03 C 451.70 380.30 451.48 378.17 449.81 377.06 C 447.85 375.52 445.22 375.56 442.86 375.55 C 441.61 384.06 437.82 392.30 438.55 401.03 M 444.42 510.42 C 436.50 514.07 430.87 520.91 424.88 526.99 C 421.27 532.36 418.41 538.47 417.66 544.96 C 417.12 550.32 420.62 555.08 424.54 558.33 C 427.73 561.02 432.45 559.80 435.54 557.60 C 441.61 552.44 443.95 544.50 446.98 537.44 L 448.02 536.94 C 449.20 540.49 450.89 543.91 453.19 546.88 C 456.85 550.91 463.62 551.09 467.83 547.81 C 471.16 545.04 475.18 542.87 477.48 539.07 C 477.58 537.62 477.50 536.18 477.25 534.75 C 472.43 537.75 467.86 541.26 462.54 543.34 C 461.32 543.95 460.01 543.56 458.76 543.37 C 455.10 533.34 460.53 521.70 454.87 512.13 C 452.81 508.38 447.66 508.05 444.42 510.42 M 388.37 520.39 C 385.22 522.06 382.60 524.61 380.23 527.25 C 375.70 532.43 374.21 539.44 373.55 546.11 C 372.96 551.46 376.23 556.81 380.97 559.20 C 384.93 561.19 389.48 561.68 393.86 561.65 C 402.82 560.14 409.40 552.96 414.34 545.83 C 414.28 545.14 414.15 543.76 414.09 543.07 C 408.49 548.14 402.93 554.35 395.09 555.61 C 391.49 556.37 388.34 554.00 385.73 551.85 C 385.67 551.19 385.53 549.87 385.46 549.21 C 391.42 545.49 397.05 541.05 401.29 535.41 C 404.45 531.13 406.34 525.46 404.35 520.28 C 402.06 519.42 399.74 517.70 397.18 518.49 C 394.23 519.07 391.20 519.36 388.37 520.39 Z" />
<path fill="#c9e265" opacity="1.00" d=" M 430.60 534.59 C 433.43 529.60 438.31 526.15 443.42 523.77 C 443.90 527.74 442.07 531.41 440.87 535.08 C 438.59 541.70 433.72 547.06 428.29 551.32 C 427.50 552.07 425.67 551.46 426.17 550.14 C 426.77 544.79 428.04 539.36 430.60 534.59 Z" />
<path fill="#c9e265" opacity="1.00" d=" M 386.79 532.91 C 389.60 529.68 393.14 527.08 396.99 525.25 C 398.94 525.30 398.53 527.66 398.00 528.89 C 395.41 535.09 390.24 539.87 384.25 542.75 C 383.12 539.33 384.47 535.51 386.79 532.91 Z" />
<path fill="#c9e265" opacity="1.00" d=" M 451.91 638.90 L 453.10 638.38 C 457.96 641.95 461.98 646.82 464.41 652.35 C 465.13 654.29 465.03 658.42 461.92 657.57 C 459.75 656.47 459.09 653.95 458.00 651.98 C 456.08 647.86 453.07 644.34 451.43 640.08 L 451.91 638.90 Z" />
<path fill="#c9e265" opacity="1.00" d=" M 437.20 641.26 C 438.19 640.26 439.58 640.14 440.91 640.38 C 437.26 647.79 430.53 653.79 422.97 657.05 C 423.07 654.38 425.15 652.58 426.76 650.73 C 430.00 647.31 433.51 644.16 437.20 641.26 Z" />
<path fill="#c9e265" opacity="1.00" d=" M 443.23 648.00 C 443.72 645.55 443.87 642.89 445.41 640.84 C 446.10 646.40 447.34 652.01 446.48 657.64 C 446.31 659.20 444.85 660.07 443.85 661.08 C 441.74 657.01 442.65 652.32 443.23 648.00 Z" />
</g>
<g id="#030c1eff">
<path fill="#030c1e" opacity="1.00" d=" M 600.05 326.06 C 603.41 324.61 606.62 327.27 607.50 330.43 C 609.54 336.90 609.23 343.82 609.66 350.52 C 609.77 369.03 610.73 387.75 607.09 406.01 C 605.73 412.64 603.87 419.34 600.13 425.05 C 597.26 429.62 592.40 432.38 587.76 434.85 C 582.49 437.58 575.47 438.44 570.62 434.39 C 567.11 431.28 564.03 427.31 563.08 422.62 C 568.15 421.63 572.91 424.69 578.01 424.04 C 582.76 424.21 587.42 421.04 588.55 416.34 C 591.95 404.23 592.14 391.51 593.00 379.04 C 593.34 375.50 593.41 371.94 593.29 368.39 C 588.57 375.69 584.49 384.27 576.38 388.40 C 570.93 391.25 563.80 389.84 559.89 385.09 C 553.08 377.96 552.50 367.61 551.61 358.33 C 551.37 350.89 550.76 343.32 552.20 335.97 C 552.77 332.81 554.99 328.67 558.79 329.40 C 565.68 331.05 567.09 339.05 568.38 344.94 C 570.22 354.85 570.78 364.95 570.76 375.01 C 570.88 376.57 570.50 378.35 571.48 379.72 C 580.11 374.03 587.87 366.03 590.90 355.93 C 593.60 347.82 593.69 339.14 595.99 330.93 C 596.49 328.76 597.44 326.19 600.05 326.06 Z" />
<path fill="#030c1e" opacity="1.00" d=" M 363.80 335.50 C 367.15 333.47 371.41 331.83 375.17 333.85 C 375.95 335.79 376.66 337.81 376.54 339.94 C 376.81 356.29 376.20 372.65 374.73 388.92 C 376.85 387.56 377.72 385.07 379.14 383.11 C 382.31 378.40 386.07 373.85 391.03 370.94 C 395.87 368.01 402.60 368.07 406.98 371.84 C 411.46 375.48 413.23 381.19 415.79 386.15 C 418.13 394.54 418.77 403.26 419.48 411.92 C 419.73 414.12 419.27 416.61 420.72 418.49 C 421.64 420.25 423.95 419.88 425.50 419.30 C 428.59 418.04 431.30 416.03 434.36 414.72 C 434.77 416.29 433.63 417.61 432.91 418.89 C 430.05 423.20 426.54 427.63 421.43 429.28 C 417.04 430.68 412.28 428.88 408.97 425.92 C 402.87 419.55 399.35 410.88 399.39 402.04 C 398.38 394.34 398.70 386.54 397.55 378.86 C 389.67 383.51 382.32 389.91 378.21 398.22 C 372.95 408.32 373.56 420.35 368.27 430.43 C 365.32 431.12 361.27 431.95 359.67 428.55 C 355.65 419.86 358.51 410.13 358.56 401.00 C 360.35 379.17 361.20 357.26 363.80 335.50 Z" />
<path fill="#030c1e" opacity="1.00" d=" M 307.66 340.75 C 318.79 337.30 331.19 335.14 342.34 339.66 C 346.93 341.63 352.54 343.76 354.31 348.90 C 355.03 353.69 350.75 358.14 346.11 358.60 C 340.50 359.17 335.34 356.29 329.88 355.54 C 321.61 354.40 312.89 354.71 305.08 357.88 C 301.00 359.59 296.90 362.49 295.59 366.92 C 295.78 369.60 298.25 371.33 300.35 372.64 C 307.90 376.92 316.52 378.56 324.73 381.13 C 333.05 383.83 341.23 388.37 346.20 395.80 C 351.46 403.61 352.23 414.33 347.49 422.58 C 341.92 432.36 332.66 439.35 323.28 445.24 C 312.41 451.86 301.25 458.37 288.99 462.05 C 282.02 464.05 273.87 464.30 267.53 460.36 C 263.22 457.41 264.11 451.49 264.37 446.99 C 264.51 442.67 269.77 442.64 272.95 442.81 C 281.68 443.75 290.22 441.24 298.41 438.50 C 306.74 435.61 315.10 432.46 322.51 427.59 C 326.33 424.99 330.21 421.66 331.45 417.03 C 332.38 412.72 328.41 409.63 325.02 407.95 C 315.30 403.16 304.95 399.81 294.66 396.48 C 288.09 394.40 281.47 391.47 276.81 386.22 C 272.83 382.10 271.06 376.39 270.86 370.76 C 271.16 365.15 274.02 359.99 277.98 356.12 C 286.38 348.57 297.07 344.24 307.66 340.75 Z" />
<path fill="#030c1e" opacity="1.00" d=" M 477.93 343.26 C 480.59 342.96 483.63 342.33 486.02 343.96 C 488.70 345.67 489.30 349.08 489.48 352.01 C 489.60 357.46 489.43 362.90 489.45 368.35 C 491.45 366.61 492.46 364.10 493.99 361.99 C 497.08 357.51 500.73 353.22 505.43 350.38 C 510.34 347.40 517.20 347.45 521.60 351.36 C 525.86 354.81 527.52 360.23 529.99 364.91 C 532.45 373.05 533.27 381.58 533.79 390.04 C 534.17 393.09 534.00 396.37 535.85 398.99 C 540.86 399.78 544.50 395.79 548.85 394.16 C 548.69 395.42 548.55 396.74 547.75 397.78 C 544.94 402.17 541.47 406.59 536.46 408.52 C 531.31 410.33 525.46 407.98 522.13 403.87 C 519.99 401.17 518.10 398.24 516.65 395.11 C 514.31 390.07 514.22 384.41 513.59 378.99 C 513.38 372.04 512.48 365.14 512.27 358.19 C 502.93 363.51 494.44 371.49 490.88 381.86 C 487.49 390.92 487.24 400.91 482.97 409.68 C 480.51 410.08 477.49 411.43 475.37 409.44 C 473.37 407.56 472.77 404.69 472.46 402.08 C 471.64 392.67 473.13 383.28 473.64 373.90 C 474.64 363.64 475.35 353.29 477.93 343.26 Z" />
<path fill="#030c1e" opacity="1.00" d=" M 446.16 361.07 C 446.78 359.85 447.23 357.93 449.02 358.24 C 450.61 358.42 452.01 359.26 453.45 359.89 C 454.22 363.44 455.25 368.21 451.58 370.54 C 449.77 371.43 446.76 373.03 445.34 370.77 C 443.54 367.68 444.88 364.08 446.16 361.07 Z" />
<path fill="#030c1e" opacity="1.00" d=" M 438.55 401.03 C 437.82 392.30 441.61 384.06 442.86 375.55 C 445.22 375.56 447.85 375.52 449.81 377.06 C 451.48 378.17 451.70 380.30 452.35 382.03 C 449.54 390.17 446.20 398.46 446.44 407.22 C 447.82 407.79 449.30 409.11 450.89 408.27 C 458.87 404.92 461.94 395.89 468.28 390.72 C 468.96 394.13 465.99 396.63 464.29 399.24 C 460.39 403.93 456.25 409.23 450.15 411.00 C 444.11 412.12 439.99 406.08 438.55 401.03 Z" />
<path fill="#030c1e" opacity="1.00" d=" M 578.70 440.91 C 581.62 439.72 584.72 438.16 587.97 438.88 C 590.93 439.79 591.14 443.42 591.29 446.00 C 591.73 462.41 590.32 478.79 589.68 495.17 C 594.10 488.62 598.14 481.33 605.08 477.09 C 609.94 473.92 616.93 473.72 621.51 477.52 C 625.86 480.89 627.54 486.33 630.02 491.01 C 633.58 501.32 633.34 512.49 634.69 523.22 C 635.26 524.50 636.41 525.80 637.99 525.57 C 642.33 525.21 645.30 521.38 649.54 520.75 C 646.54 527.22 641.55 534.35 633.98 535.46 C 626.68 536.24 621.31 530.15 618.24 524.29 C 616.29 520.84 614.95 517.03 614.54 513.08 C 613.46 503.60 613.11 494.06 612.35 484.56 C 603.78 489.61 595.77 496.63 591.95 506.04 C 587.67 515.68 587.75 526.67 583.08 536.19 C 581.13 536.46 579.14 537.26 577.17 536.80 C 574.08 535.59 573.09 531.99 572.67 529.02 C 571.56 519.34 573.48 509.68 573.69 500.00 C 574.45 494.04 574.17 487.97 575.27 482.05 C 567.18 487.38 557.70 491.03 547.98 491.58 C 545.02 501.24 542.43 511.05 540.75 521.02 C 539.37 528.66 539.24 536.63 541.67 544.08 C 543.09 546.74 545.69 549.31 548.96 549.01 C 557.12 548.51 563.63 542.69 568.96 536.99 C 570.10 538.60 571.51 540.95 569.87 542.76 C 566.75 546.47 562.33 548.75 558.25 551.24 C 552.38 554.81 544.48 555.23 538.61 551.45 C 532.00 547.30 527.45 540.43 524.77 533.22 C 520.55 519.88 522.32 505.67 524.86 492.19 C 519.85 491.39 514.89 490.39 509.96 489.26 C 507.22 510.66 503.00 531.85 498.79 553.00 C 498.02 557.44 498.48 561.94 498.56 566.42 C 501.87 571.41 508.29 568.74 512.70 566.94 C 512.42 568.64 512.58 570.83 510.83 571.83 C 503.92 576.02 493.04 572.85 490.47 564.88 C 488.77 559.67 486.83 554.44 486.41 548.93 C 485.84 540.23 486.99 531.56 487.75 522.91 C 489.06 510.31 490.42 497.72 491.94 485.15 C 492.75 477.85 493.91 470.55 494.04 463.19 C 493.50 460.81 492.54 458.54 492.02 456.16 C 498.13 457.25 506.18 456.92 509.65 463.12 C 513.30 468.62 511.28 475.39 511.18 481.51 C 516.33 481.75 521.47 481.33 526.59 480.77 C 528.02 473.21 531.75 464.98 528.34 457.47 C 530.45 456.87 532.70 455.62 534.89 456.66 C 540.24 458.39 545.63 461.36 548.48 466.40 C 549.89 470.22 549.33 474.44 550.36 478.38 C 558.97 476.68 567.69 474.93 575.68 471.16 C 576.69 461.08 577.00 450.92 578.70 440.91 Z" />
<path fill="#030c1e" opacity="1.00" d=" M 328.73 486.75 C 335.81 484.24 345.19 483.10 350.82 489.15 C 355.49 499.45 356.51 510.93 356.81 522.12 C 360.25 527.33 361.16 533.91 360.38 540.02 C 360.11 542.69 358.51 544.92 356.78 546.88 C 356.93 559.59 355.35 572.42 351.17 584.47 C 349.34 589.39 346.92 594.31 343.02 597.92 C 341.82 598.90 339.74 600.36 338.65 598.47 C 336.91 595.30 337.40 591.52 337.29 588.06 C 337.65 576.27 337.23 564.45 338.19 552.69 C 327.91 554.12 317.52 554.47 307.19 555.28 C 306.34 561.55 307.06 568.07 305.83 574.37 C 304.45 586.42 303.28 598.67 299.35 610.21 C 297.72 614.50 295.05 620.44 289.40 619.40 C 289.83 600.17 290.06 580.93 289.20 561.71 L 288.80 561.11 C 288.70 559.12 288.57 557.15 288.46 555.18 C 282.70 553.63 276.48 552.24 272.09 547.90 C 269.10 544.73 266.72 540.82 266.01 536.47 C 270.30 536.70 274.60 536.84 278.91 536.74 C 282.10 536.67 285.29 536.53 288.49 536.51 C 288.70 528.66 288.58 520.80 288.30 512.96 C 288.15 506.62 284.63 500.38 278.63 497.91 C 285.75 495.35 295.12 494.19 300.82 500.24 C 305.95 511.29 306.78 523.75 306.83 535.78 C 317.36 535.50 327.91 535.04 338.40 533.99 C 338.50 522.99 338.79 511.96 338.12 500.98 C 337.81 494.94 334.20 489.37 328.73 486.75 Z" />
<path fill="#030c1e" opacity="1.00" d=" M 444.42 510.42 C 447.66 508.05 452.81 508.38 454.87 512.13 C 460.53 521.70 455.10 533.34 458.76 543.37 C 460.01 543.56 461.32 543.95 462.54 543.34 C 467.86 541.26 472.43 537.75 477.25 534.75 C 477.50 536.18 477.58 537.62 477.48 539.07 C 475.18 542.87 471.16 545.04 467.83 547.81 C 463.62 551.09 456.85 550.91 453.19 546.88 C 450.89 543.91 449.20 540.49 448.02 536.94 L 446.98 537.44 C 443.95 544.50 441.61 552.44 435.54 557.60 C 432.45 559.80 427.73 561.02 424.54 558.33 C 420.62 555.08 417.12 550.32 417.66 544.96 C 418.41 538.47 421.27 532.36 424.88 526.99 C 430.87 520.91 436.50 514.07 444.42 510.42 M 430.60 534.59 C 428.04 539.36 426.77 544.79 426.17 550.14 C 425.67 551.46 427.50 552.07 428.29 551.32 C 433.72 547.06 438.59 541.70 440.87 535.08 C 442.07 531.41 443.90 527.74 443.42 523.77 C 438.31 526.15 433.43 529.60 430.60 534.59 Z" />
<path fill="#030c1e" opacity="1.00" d=" M 388.37 520.39 C 391.20 519.36 394.23 519.07 397.18 518.49 C 399.74 517.70 402.06 519.42 404.35 520.28 C 406.34 525.46 404.45 531.13 401.29 535.41 C 397.05 541.05 391.42 545.49 385.46 549.21 C 385.53 549.87 385.67 551.19 385.73 551.85 C 388.34 554.00 391.49 556.37 395.09 555.61 C 402.93 554.35 408.49 548.14 414.09 543.07 C 414.15 543.76 414.28 545.14 414.34 545.83 C 409.40 552.96 402.82 560.14 393.86 561.65 C 389.48 561.68 384.93 561.19 380.97 559.20 C 376.23 556.81 372.96 551.46 373.55 546.11 C 374.21 539.44 375.70 532.43 380.23 527.25 C 382.60 524.61 385.22 522.06 388.37 520.39 M 386.79 532.91 C 384.47 535.51 383.12 539.33 384.25 542.75 C 390.24 539.87 395.41 535.09 398.00 528.89 C 398.53 527.66 398.94 525.30 396.99 525.25 C 393.14 527.08 389.60 529.68 386.79 532.91 Z" />
<path fill="#030c1e" opacity="1.00" d=" M 209.50 696.03 C 213.89 695.96 218.28 695.69 222.66 695.41 C 223.29 698.58 223.65 701.80 224.43 704.95 C 229.40 704.90 234.38 704.93 239.35 704.92 C 239.36 708.59 239.35 712.26 239.36 715.93 C 237.86 715.99 236.37 716.08 234.87 716.18 C 234.26 720.33 233.28 724.43 232.39 728.54 C 235.05 728.53 237.71 728.53 240.38 728.52 C 240.34 732.37 240.36 736.22 240.36 740.08 C 234.69 740.07 229.02 740.08 223.36 740.07 C 223.35 742.47 223.35 744.87 223.36 747.28 C 228.79 747.25 234.21 747.31 239.64 747.24 C 239.57 751.15 239.57 755.06 239.65 758.97 C 234.21 759.20 228.77 759.04 223.34 759.08 C 223.35 760.91 223.36 762.75 223.38 764.60 C 225.97 763.03 228.52 761.42 231.13 759.90 C 233.96 763.82 236.74 767.79 239.14 772.00 C 241.38 765.58 241.96 758.75 242.42 752.02 C 242.63 736.04 242.44 720.07 242.52 704.09 C 254.68 703.16 266.79 700.78 278.34 696.79 C 280.01 700.81 280.97 705.08 282.52 709.16 C 273.50 712.61 263.99 714.47 254.49 716.03 C 254.49 720.53 254.50 725.03 254.48 729.54 C 264.53 729.50 274.57 729.58 284.62 729.49 C 284.58 733.66 284.58 737.84 284.62 742.02 C 281.53 742.09 278.44 742.08 275.35 742.08 C 275.37 758.74 275.35 775.41 275.35 792.08 C 271.30 792.07 267.24 792.07 263.18 792.08 C 263.20 775.45 263.15 758.82 263.21 742.20 C 260.30 742.05 257.39 742.04 254.48 742.09 C 254.61 754.19 253.94 766.53 250.04 778.08 C 248.21 783.61 245.42 788.74 242.78 793.91 C 238.66 792.21 234.80 789.97 230.87 787.90 C 233.75 783.43 236.42 778.83 238.59 773.97 C 235.71 775.67 233.02 777.64 230.35 779.65 C 228.91 775.29 226.19 771.50 223.49 767.85 C 223.12 773.62 223.61 779.41 223.21 785.18 C 223.07 787.72 221.79 790.32 219.26 791.23 C 215.27 792.68 210.94 792.87 206.74 793.19 C 205.68 789.14 204.53 785.11 203.36 781.10 C 206.04 780.70 210.12 781.59 211.27 778.30 C 211.60 771.91 211.29 765.50 211.42 759.10 C 205.45 759.04 199.48 759.11 193.51 759.08 C 193.50 755.15 193.57 751.23 193.41 747.32 C 199.41 747.22 205.40 747.30 211.40 747.27 C 211.40 744.87 211.40 742.49 211.42 740.10 C 204.87 740.04 198.32 740.09 191.77 740.07 C 191.77 736.22 191.78 732.37 191.75 728.53 C 195.34 728.53 198.93 728.54 202.52 728.51 C 201.61 724.40 200.68 720.30 200.12 716.14 C 198.34 716.04 196.55 715.99 194.77 715.96 C 194.77 712.28 194.77 708.60 194.77 704.93 C 200.34 704.92 205.91 704.93 211.48 704.91 C 210.77 701.95 210.22 698.97 209.50 696.03 M 211.33 716.01 C 212.02 720.19 212.87 724.34 213.61 728.52 C 216.15 728.53 218.69 728.53 221.23 728.49 C 221.95 724.30 223.01 720.19 223.75 716.01 C 219.61 715.99 215.47 715.99 211.33 716.01 Z" />
<path fill="#030c1e" opacity="1.00" d=" M 648.71 696.09 C 653.48 695.85 658.26 695.56 663.04 695.49 C 663.32 698.00 663.80 700.50 664.43 702.96 C 675.36 703.05 686.29 702.97 697.23 703.00 C 697.23 706.82 697.22 710.64 697.25 714.47 C 686.69 714.47 676.14 714.45 665.59 714.48 C 665.58 715.97 665.58 717.46 665.59 718.97 C 674.33 719.04 683.07 718.97 691.82 719.01 C 691.95 723.53 691.46 728.09 692.17 732.58 C 694.52 732.53 696.88 732.52 699.25 732.52 C 699.21 735.57 699.21 738.63 699.27 741.70 C 696.97 741.73 694.67 741.73 692.38 741.62 C 691.11 745.87 692.24 750.39 691.73 754.75 C 691.37 754.97 690.66 755.42 690.31 755.64 C 692.16 757.40 693.71 759.46 695.06 761.63 C 691.04 764.52 687.12 767.55 683.10 770.46 C 689.01 774.52 695.45 777.73 702.09 780.41 C 700.53 784.11 698.61 787.65 697.02 791.34 C 685.22 786.30 674.19 779.18 665.66 769.52 C 665.31 774.92 666.13 780.41 665.11 785.75 C 664.14 789.86 659.84 791.81 655.97 792.08 C 653.07 792.20 650.12 793.21 647.25 792.70 C 645.72 789.27 644.97 785.48 643.52 781.99 C 646.51 781.54 649.62 781.45 652.51 780.44 C 655.09 779.00 654.42 775.72 654.50 773.28 C 644.80 778.92 634.93 784.27 624.88 789.26 C 623.19 786.61 621.56 783.92 619.93 781.24 C 618.22 784.49 616.57 787.78 614.89 791.06 C 610.83 789.33 606.94 787.27 602.92 785.48 C 605.40 779.65 608.84 774.23 610.57 768.08 C 613.73 758.38 613.58 748.10 614.19 738.03 C 614.17 726.36 614.19 714.68 614.18 703.00 C 626.28 702.96 638.39 703.07 650.49 702.95 C 649.92 700.65 649.38 698.35 648.71 696.09 M 626.35 714.46 C 626.36 720.48 626.36 726.51 626.35 732.54 C 635.74 732.52 645.13 732.53 654.52 732.54 C 654.50 731.25 654.50 729.98 654.50 728.72 C 646.74 728.75 638.99 728.67 631.24 728.76 C 631.29 725.51 631.28 722.26 631.27 719.01 C 639.01 718.99 646.76 719.00 654.50 719.00 C 654.50 717.48 654.51 715.97 654.52 714.46 C 645.13 714.46 635.74 714.48 626.35 714.46 M 665.60 728.73 C 665.60 729.68 665.59 731.57 665.58 732.52 C 670.60 732.54 675.62 732.52 680.65 732.54 C 680.65 731.58 680.64 729.67 680.64 728.72 C 675.62 728.73 670.61 728.72 665.60 728.73 M 620.49 779.19 C 626.88 776.74 632.87 773.37 638.91 770.19 C 635.02 766.65 631.20 763.02 626.94 759.93 C 628.03 758.47 629.22 757.09 630.51 755.81 C 630.13 752.38 630.30 748.93 630.27 745.49 C 638.35 745.59 646.44 745.50 654.52 745.54 C 654.50 744.25 654.50 742.98 654.50 741.72 C 645.13 741.72 635.75 741.74 626.38 741.71 C 626.09 754.33 625.61 767.44 620.49 779.19 M 665.60 741.73 C 665.60 742.68 665.59 744.57 665.58 745.52 C 670.60 745.54 675.62 745.52 680.65 745.54 C 680.65 744.59 680.64 742.67 680.64 741.72 C 675.62 741.73 670.61 741.72 665.60 741.73 M 637.50 755.18 C 640.70 757.52 643.53 760.29 646.42 762.98 C 644.68 764.84 643.04 766.79 641.44 768.77 C 644.31 767.22 647.17 765.65 649.97 763.96 C 651.39 763.16 652.80 761.96 654.55 762.35 C 654.50 759.92 654.50 757.50 654.52 755.08 C 648.84 755.10 643.17 754.98 637.50 755.18 M 668.14 755.12 C 669.89 757.86 671.99 760.34 674.03 762.87 C 677.84 760.46 681.50 757.80 685.15 755.15 C 679.48 755.03 673.81 755.05 668.14 755.12 Z" />
<path fill="#030c1e" opacity="1.00" d=" M 348.17 696.99 C 352.01 697.31 355.85 697.49 359.69 697.65 C 359.73 701.05 359.73 704.46 359.70 707.86 C 363.29 707.94 366.89 707.93 370.49 707.92 C 370.49 711.70 370.49 715.48 370.50 719.27 C 366.89 719.23 363.28 719.20 359.68 719.35 C 359.73 722.73 359.73 726.11 359.71 729.50 C 363.41 729.54 367.12 729.55 370.83 729.49 C 370.76 733.26 370.74 737.05 371.26 740.80 C 368.04 741.14 364.80 741.10 361.57 741.11 C 361.60 744.91 361.60 748.71 361.58 752.52 C 364.79 752.53 368.00 752.53 371.21 752.53 C 371.23 754.30 371.27 756.09 371.38 757.87 C 372.57 756.49 373.59 754.87 373.40 752.97 C 373.39 739.06 373.45 725.15 373.36 711.24 C 379.19 711.31 385.02 711.25 390.85 711.28 C 390.70 706.50 390.64 701.72 390.58 696.93 C 394.46 697.07 398.34 697.36 402.23 697.58 C 402.23 699.46 402.25 701.35 402.31 703.24 C 404.88 701.07 407.21 698.63 409.68 696.34 C 413.10 699.72 416.71 702.93 419.89 706.55 C 418.19 708.06 416.53 709.63 414.91 711.23 C 417.11 711.25 419.33 711.27 421.54 711.26 C 421.46 715.09 421.46 718.91 421.54 722.75 C 415.47 722.70 409.40 722.74 403.33 722.72 C 403.52 728.24 404.21 733.73 404.96 739.20 C 407.29 735.14 408.71 730.66 410.35 726.30 C 413.62 726.29 416.72 728.34 419.79 729.49 C 416.36 738.27 413.12 747.27 407.68 755.06 C 408.60 757.54 409.02 760.26 410.37 762.56 C 411.40 763.83 413.37 762.47 413.45 761.11 C 414.50 758.27 414.71 755.23 414.88 752.24 C 418.21 754.12 421.51 756.06 424.85 757.93 C 423.67 763.56 422.42 769.42 419.14 774.25 C 416.19 778.78 409.17 779.28 405.28 775.72 C 402.39 773.24 400.82 769.71 399.17 766.38 C 395.63 770.44 391.66 774.09 387.84 777.87 C 386.70 778.04 385.57 778.18 384.44 778.31 C 382.90 775.47 380.37 773.36 378.31 770.93 C 384.44 765.96 390.35 760.66 395.46 754.63 C 395.39 753.72 395.24 751.89 395.16 750.98 C 389.58 756.85 382.86 761.50 376.76 766.81 C 374.96 764.46 373.29 762.03 371.37 759.80 C 371.28 761.35 371.23 762.90 371.21 764.47 C 368.00 764.46 364.79 764.46 361.59 764.48 C 361.60 768.78 361.60 773.08 361.59 777.38 C 369.91 778.29 378.40 779.50 386.76 778.55 C 388.15 778.88 389.56 779.03 391.00 779.02 C 402.15 778.99 413.32 779.02 424.43 778.00 C 423.48 782.10 422.86 786.29 421.53 790.31 C 410.67 790.44 399.82 791.21 388.96 791.00 C 378.15 790.86 367.08 791.51 356.54 788.63 C 350.47 787.05 345.29 783.11 341.81 777.94 C 340.22 782.86 338.37 787.70 336.27 792.43 C 332.87 790.89 329.45 789.38 326.01 787.95 C 327.82 783.34 329.93 778.84 331.37 774.10 C 334.30 764.99 334.78 755.35 334.68 745.86 C 338.25 745.96 341.81 746.28 345.38 746.58 C 345.59 751.36 344.86 756.20 345.55 760.94 C 346.69 763.80 347.28 767.50 350.14 769.19 C 350.26 759.86 350.12 750.53 350.21 741.20 C 343.95 740.94 337.67 741.12 331.41 741.08 C 331.40 737.22 331.42 733.35 331.38 729.50 C 336.87 729.58 342.36 729.47 347.86 729.57 C 348.39 726.20 348.13 722.79 348.22 719.40 C 343.69 719.12 339.16 719.28 334.64 719.26 C 334.64 715.48 334.64 711.70 334.65 707.92 C 339.17 707.90 343.69 708.02 348.21 707.80 C 348.17 704.20 348.18 700.59 348.17 696.99 M 402.46 703.98 C 402.33 706.41 402.39 708.85 402.51 711.29 C 404.70 711.27 406.89 711.26 409.08 711.23 C 406.95 708.74 404.78 706.29 402.46 703.98 M 384.49 722.72 C 384.56 730.72 384.35 738.73 384.61 746.74 C 386.45 745.16 388.27 743.55 390.12 741.98 C 391.04 745.35 392.21 748.65 393.03 752.05 C 393.59 751.25 394.16 750.46 394.72 749.68 C 392.81 740.82 392.20 731.75 391.54 722.73 C 389.19 722.72 386.84 722.72 384.49 722.72 Z" />
<path fill="#030c1e" opacity="1.00" d=" M 480.55 696.89 C 484.25 697.67 487.98 698.32 491.71 699.02 C 490.16 706.07 488.20 713.03 485.82 719.85 C 485.82 740.87 485.81 761.89 485.82 782.91 C 489.84 780.14 491.81 775.28 494.81 771.54 C 491.69 764.55 489.07 757.35 487.39 749.87 C 490.60 748.85 493.72 747.45 497.08 746.96 C 498.12 750.65 498.25 755.04 500.90 758.01 C 502.29 752.88 502.94 747.59 503.54 742.32 C 499.11 742.20 494.69 742.24 490.27 742.28 C 490.28 738.55 490.26 734.82 490.30 731.10 C 494.27 725.24 497.88 719.15 501.84 713.28 C 498.73 713.23 495.61 713.23 492.51 713.27 C 492.51 709.59 492.53 705.92 492.46 702.25 C 499.49 702.29 506.51 702.29 513.54 702.25 C 513.46 706.03 513.49 709.80 513.49 713.59 C 509.56 719.49 505.90 725.57 501.98 731.48 C 505.86 731.55 509.74 731.56 513.62 731.49 C 514.18 744.86 511.83 758.28 507.27 770.84 C 510.19 773.28 513.16 775.77 516.74 777.20 C 524.43 780.46 532.94 779.53 541.07 779.93 C 548.33 779.76 555.60 779.89 562.83 779.18 C 561.24 782.53 561.43 787.07 559.14 789.91 C 548.79 790.36 538.43 790.11 528.07 790.04 C 518.75 789.73 508.80 787.78 501.96 780.93 C 499.35 785.01 496.47 788.91 493.81 792.95 C 491.01 791.09 488.85 788.39 485.85 786.84 C 485.81 788.64 485.81 790.45 485.82 792.27 C 482.38 792.24 478.94 792.24 475.50 792.27 C 475.42 775.82 475.70 759.37 475.36 742.94 C 473.71 745.41 472.36 748.06 470.98 750.69 C 468.45 747.46 465.99 744.18 463.42 740.99 C 471.01 727.12 477.02 712.32 480.55 696.89 Z" />
<path fill="#030c1e" opacity="1.00" d=" M 528.63 696.85 C 532.24 696.94 535.86 697.00 539.48 697.01 C 539.49 699.32 539.48 701.63 539.46 703.95 C 545.13 704.05 550.81 703.97 556.49 704.00 C 556.47 708.62 556.55 713.25 556.42 717.88 C 557.81 717.94 559.21 718.00 560.62 718.07 C 560.58 721.36 560.57 724.66 560.64 727.96 C 559.24 728.01 557.85 728.06 556.47 728.13 C 556.50 732.78 556.48 737.43 556.49 742.08 C 550.82 742.07 545.15 742.06 539.48 742.08 C 539.48 743.56 539.48 745.04 539.49 746.54 C 545.07 746.52 550.66 746.54 556.25 746.53 C 556.22 749.70 556.23 752.89 556.23 756.07 C 550.65 756.07 545.07 756.07 539.49 756.07 C 539.48 757.37 539.48 758.68 539.49 760.00 C 545.90 760.00 552.31 759.99 558.73 760.01 C 558.72 763.36 558.72 766.72 558.72 770.08 C 552.31 770.08 545.89 770.06 539.48 770.08 C 539.48 772.41 539.49 774.74 539.49 777.08 C 535.87 777.07 532.26 777.07 528.64 777.08 C 528.64 774.74 528.64 772.41 528.65 770.08 C 523.57 770.07 518.49 770.07 513.41 770.08 C 513.40 766.72 513.40 763.36 513.41 760.00 C 518.49 759.99 523.57 760.01 528.65 759.99 C 528.64 758.67 528.64 757.37 528.65 756.08 C 524.84 756.07 521.03 756.07 517.23 756.08 C 517.19 754.37 517.12 752.68 517.02 751.00 C 517.08 749.49 517.15 747.99 517.23 746.50 C 521.03 746.55 524.83 746.52 528.64 746.54 C 528.64 745.05 528.64 743.56 528.65 742.08 C 524.83 742.07 521.00 742.07 517.18 742.08 C 517.18 738.88 517.19 735.69 517.16 732.50 C 520.99 732.55 524.81 732.52 528.64 732.54 C 528.64 731.05 528.64 729.56 528.65 728.08 C 523.98 728.07 519.31 728.07 514.65 728.08 C 514.64 724.71 514.64 721.36 514.64 718.00 C 519.32 717.99 523.99 718.02 528.67 717.98 C 528.64 716.54 528.62 715.12 528.60 713.70 C 524.78 713.74 520.97 713.70 517.16 713.76 C 517.19 710.51 517.18 707.25 517.18 704.01 C 521.00 703.99 524.83 704.01 528.66 703.98 C 528.64 701.59 528.64 699.22 528.63 696.85 M 539.51 713.72 C 539.48 715.12 539.46 716.52 539.44 717.95 C 541.55 717.98 543.66 718.00 545.78 718.01 C 545.76 716.56 545.76 715.14 545.76 713.72 C 543.67 713.72 541.59 713.72 539.51 713.72 M 539.48 728.08 C 539.48 729.56 539.48 731.04 539.49 732.54 C 541.57 732.53 543.67 732.53 545.77 732.54 C 545.76 731.04 545.76 729.55 545.77 728.07 C 543.67 728.07 541.57 728.07 539.48 728.08 Z" />
<path fill="#030c1e" opacity="1.00" d=" M 112.28 755.08 C 112.29 750.95 112.24 746.82 112.32 742.70 C 123.15 742.80 133.99 742.74 144.82 742.73 C 144.81 746.84 144.82 750.96 144.82 755.08 C 133.97 755.08 123.12 755.06 112.28 755.08 Z" />
<path fill="#030c1e" opacity="1.00" d=" M 746.27 742.73 C 757.10 742.77 767.93 742.76 778.75 742.73 C 779.20 746.84 778.98 750.95 778.77 755.08 C 767.93 755.07 757.10 755.09 746.27 755.07 C 746.28 750.95 746.28 746.84 746.27 742.73 Z" />
<path fill="#030c1e" opacity="1.00" d=" M 199.02 759.63 C 202.49 761.16 205.90 762.81 209.38 764.34 C 205.90 772.40 202.10 780.41 197.00 787.59 C 193.67 785.72 190.37 783.77 187.04 781.90 C 191.91 775.00 196.16 767.60 199.02 759.63 Z" />
</g>
</svg>
